<?xml version="1.0" encoding="UTF-8" standalone="no"?>
<!-- Generator: Adobe Illustrator 22.1.0, SVG Export Plug-In . SVG Version: 6.00 Build 0)  -->

<svg
   xmlns:dc="http://purl.org/dc/elements/1.1/"
   xmlns:cc="http://creativecommons.org/ns#"
   xmlns:rdf="http://www.w3.org/1999/02/22-rdf-syntax-ns#"
   xmlns:svg="http://www.w3.org/2000/svg"
   xmlns="http://www.w3.org/2000/svg"
   xmlns:sodipodi="http://sodipodi.sourceforge.net/DTD/sodipodi-0.dtd"
   xmlns:inkscape="http://www.inkscape.org/namespaces/inkscape"
   version="1.1"
   id="Layer_1"
   x="0px"
   y="0px"
   viewBox="0 0 130.7 25.6"
   style="enable-background:new 0 0 130.7 25.6;"
   xml:space="preserve"
   sodipodi:docname="logo_2_original.svg"
   inkscape:version="0.92.4 (5da689c313, 2019-01-14)"><metadata
   id="metadata64"><rdf:RDF><cc:Work
       rdf:about=""><dc:format>image/svg+xml</dc:format><dc:type
         rdf:resource="http://purl.org/dc/dcmitype/StillImage" /></cc:Work></rdf:RDF></metadata><defs
   id="defs62" /><sodipodi:namedview
   pagecolor="#ffffff"
   bordercolor="#666666"
   borderopacity="1"
   objecttolerance="10"
   gridtolerance="10"
   guidetolerance="10"
   inkscape:pageopacity="0"
   inkscape:pageshadow="2"
   inkscape:window-width="1280"
   inkscape:window-height="961"
   id="namedview60"
   showgrid="false"
   inkscape:zoom="5.6568543"
   inkscape:cx="119.88899"
   inkscape:cy="0.097058688"
   inkscape:window-x="-8"
   inkscape:window-y="-8"
   inkscape:window-maximized="1"
   inkscape:current-layer="Layer_1" />
<style
   type="text/css"
   id="style2">
	.st0{fill:url(#Oval-2_1_);}
	.st1{fill:#9B9B9B;}
	.st2{fill:#FFFFFF;}
	.st3{enable-background:new    ;}
</style>
<title
   id="title4">logo</title>
<desc
   id="desc6">Created with Sketch.</desc>

<g
   id="g244"
   transform="matrix(0.06046838,0,0,0.05417577,-0.70453378,0.00758034)"><path
     id="path66"
     d="m 100,216 h -8 c -8.837,0 -16,7.163 -16,16 v 8 c 0.026,22.08 17.92,39.974 40,40 h 8 c 8.837,0 16,-7.163 16,-16 v -8 c -0.026,-22.08 -17.92,-39.974 -40,-40 z"
     style="fill:#33bc00"
     inkscape:connector-curvature="0" /><path
     id="path68"
     d="m 148,216 h -8 c -8.837,0 -16,7.163 -16,16 v 8 c 0.026,22.08 17.92,39.974 40,40 h 8 c 8.837,0 16,-7.163 16,-16 v -8 c -0.026,-22.08 -17.92,-39.974 -40,-40 z"
     style="fill:#79d60d"
     inkscape:connector-curvature="0" /><path
     id="path70"
     d="m 84,264 h -8 c -8.837,0 -16,7.163 -16,16 v 8 c 0.026,22.08 17.92,39.974 40,40 h 8 c 8.837,0 16,-7.163 16,-16 v -8 c -0.026,-22.08 -17.92,-39.974 -40,-40 z"
     style="fill:#025902"
     inkscape:connector-curvature="0" /><path
     id="path72"
     d="m 132,264 h -8 c -8.837,0 -16,7.163 -16,16 v 8 c 0.026,22.08 17.92,39.974 40,40 h 8 c 8.837,0 16,-7.163 16,-16 v -8 c -0.026,-22.08 -17.92,-39.974 -40,-40 z"
     style="fill:#008100"
     inkscape:connector-curvature="0" /><path
     id="path74"
     d="m 180,264 h -8 c -8.837,0 -16,7.163 -16,16 v 8 c 0.026,22.08 17.92,39.974 40,40 h 8 c 8.837,0 16,-7.163 16,-16 v -8 c -0.026,-22.08 -17.92,-39.974 -40,-40 z"
     style="fill:#33bc00"
     inkscape:connector-curvature="0" /><g
     id="g82">
	<path
   id="path76"
   d="m 292.407,205.475 8.003,-23.997 15.178,5.062 -8.003,23.997 z"
   style="fill:#008100"
   inkscape:connector-curvature="0" />
	<path
   id="path78"
   d="m 324.411,205.439 8.003,-23.997 15.178,5.062 -8.003,23.997 z"
   style="fill:#008100"
   inkscape:connector-curvature="0" />
	<path
   id="path80"
   d="m 356.423,205.466 8.003,-23.997 15.178,5.062 -8.003,23.997 z"
   style="fill:#008100"
   inkscape:connector-curvature="0" />
</g><path
     id="path84"
     d="m 300,200 c -13.255,0 -24,10.745 -24,24 v 40 h 48 v -40 c 0,-13.255 -10.745,-24 -24,-24 z"
     style="fill:#ff8800"
     inkscape:connector-curvature="0" /><path
     id="path86"
     d="m 332,200 c -13.255,0 -24,10.745 -24,24 v 40 h 48 v -40 c 0,-13.255 -10.745,-24 -24,-24 z"
     style="fill:#ff6536"
     inkscape:connector-curvature="0" /><path
     id="path88"
     d="m 364,200 c -13.255,0 -24,10.745 -24,24 v 40 h 48 v -40 c 0,-13.255 -10.745,-24 -24,-24 z"
     style="fill:#ff421d"
     inkscape:connector-curvature="0" /><path
     id="path90"
     d="m 260,256 h 144 v 64 H 260 Z"
     style="fill:#ffa900"
     inkscape:connector-curvature="0" /><path
     id="path92"
     d="M 444,328 H 28 V 136 H 44 V 312 H 428 V 136 h 16 z"
     style="fill:#763a02"
     inkscape:connector-curvature="0" /><g
     id="g98">
	<path
   id="path94"
   d="m 212,0 h 48 v 112 h -48 z"
   style="fill:#de0418"
   inkscape:connector-curvature="0" />
	<path
   id="path96"
   d="M 164,112 V 0 H 128.448 L 116,112 Z"
   style="fill:#de0418"
   inkscape:connector-curvature="0" />
</g><g
     id="g106">
	<path
   id="path100"
   d="m 164,0 h 48 v 112 h -48 z"
   style="fill:#fbbf00"
   inkscape:connector-curvature="0" />
	<path
   id="path102"
   d="M 116,112 128.448,0 H 92.888 L 68,112 Z"
   style="fill:#fbbf00"
   inkscape:connector-curvature="0" />
	<path
   id="path104"
   d="M 404,112 379.112,0 h -35.56 L 356,112 Z"
   style="fill:#fbbf00"
   inkscape:connector-curvature="0" />
</g><g
     id="g112">
	<path
   id="path108"
   d="M 92.888,0 H 68 L 20,96 v 16 h 48 z"
   style="fill:#de0418"
   inkscape:connector-curvature="0" />
	<path
   id="path110"
   d="M 356,112 343.552,0 H 308 v 112 z"
   style="fill:#de0418"
   inkscape:connector-curvature="0" />
</g><path
     id="path114"
     d="m 260,0 h 48 v 112 h -48 z"
     style="fill:#fbbf00"
     inkscape:connector-curvature="0" /><path
     id="path116"
     d="M 404,0 H 379.112 L 404,112 h 48 V 96 Z"
     style="fill:#de0418"
     inkscape:connector-curvature="0" /><path
     id="path118"
     d="m 20,112 v 24 c 0,13.255 10.745,24 24,24 13.255,0 24,-10.745 24,-24 v -24 z"
     style="fill:#ff421d"
     inkscape:connector-curvature="0" /><path
     id="path120"
     d="m 68,112 v 24 c 0,13.255 10.745,24 24,24 13.255,0 24,-10.745 24,-24 v -24 z"
     style="fill:#ffdb0c"
     inkscape:connector-curvature="0" /><path
     id="path122"
     d="m 116,112 v 24 c 0,13.255 10.745,24 24,24 13.255,0 24,-10.745 24,-24 v -24 z"
     style="fill:#ff421d"
     inkscape:connector-curvature="0" /><path
     id="path124"
     d="m 164,112 v 24 c 0,13.255 10.745,24 24,24 13.255,0 24,-10.745 24,-24 v -24 z"
     style="fill:#ffdb0c"
     inkscape:connector-curvature="0" /><path
     id="path126"
     d="m 212,112 v 24 c 0,13.255 10.745,24 24,24 13.255,0 24,-10.745 24,-24 v -24 z"
     style="fill:#ff421d"
     inkscape:connector-curvature="0" /><path
     id="path128"
     d="m 260,112 v 24 c 0,13.255 10.745,24 24,24 13.255,0 24,-10.745 24,-24 v -24 z"
     style="fill:#ffdb0c"
     inkscape:connector-curvature="0" /><path
     id="path130"
     d="m 308,112 v 24 c 0,13.255 10.745,24 24,24 13.255,0 24,-10.745 24,-24 v -24 z"
     style="fill:#ff421d"
     inkscape:connector-curvature="0" /><path
     id="path132"
     d="m 356,112 v 24 c 0,13.255 10.745,24 24,24 13.255,0 24,-10.745 24,-24 v -24 z"
     style="fill:#ffdb0c"
     inkscape:connector-curvature="0" /><path
     id="path134"
     d="m 404,136 c 0,13.255 10.745,24 24,24 13.255,0 24,-10.745 24,-24 v -24 h -48 z"
     style="fill:#ff421d"
     inkscape:connector-curvature="0" /><path
     id="path136"
     d="M 12,312 H 460 V 472 H 12 Z"
     style="fill:#ffdb0c"
     inkscape:connector-curvature="0" /><path
     id="path138"
     d="m 284,280 h 96 v 16 h -96 z"
     style="fill:#e47700"
     inkscape:connector-curvature="0" /><g
     id="g144">
	<path
   id="path140"
   d="m 294.343,362.363 24.002,-24.002 11.314,11.314 -24.002,24.002 z"
   style="fill:#33bc00"
   inkscape:connector-curvature="0" />
	<path
   id="path142"
   d="m 308,368 h 24 v 16 h -24 z"
   style="fill:#33bc00"
   inkscape:connector-curvature="0" />
</g><path
     id="path146"
     d="m 283.28,352 h -2.56 c -10.566,0.012 -20.48,5.113 -26.632,13.704 l -30.344,42.488 c -6.455,9.045 -4.356,21.61 4.689,28.065 3.411,2.434 7.497,3.743 11.687,3.743 h 1.024 c 3.121,-0.005 6.198,-0.731 8.992,-2.12 l 47.784,-23.896 c 16.162,-8.083 22.711,-27.738 14.628,-43.9 C 307.004,358.999 295.673,351.999 283.28,352 Z"
     style="fill:#ff6536"
     inkscape:connector-curvature="0" /><path
     id="path148"
     d="m 196,360 h -8 c -8.837,0 -16,7.163 -16,16 v 8 c 0.035,30.913 25.087,55.965 56,56 h 8 c 8.837,0 16,-7.163 16,-16 v -8 c -0.035,-30.913 -25.087,-55.965 -56,-56 z"
     style="fill:#79d60d"
     inkscape:connector-curvature="0" /><g
     id="g150">
</g><g
     id="g152">
</g><g
     id="g154">
</g><g
     id="g156">
</g><g
     id="g158">
</g><g
     id="g160">
</g><g
     id="g162">
</g><g
     id="g164">
</g><g
     id="g166">
</g><g
     id="g168">
</g><g
     id="g170">
</g><g
     id="g172">
</g><g
     id="g174">
</g><g
     id="g176">
</g><g
     id="g178">
</g></g><text
   xml:space="preserve"
   style="font-style:normal;font-variant:normal;font-weight:bold;font-stretch:normal;font-size:13.0089035px;line-height:1.25;font-family:sans-serif;-inkscape-font-specification:'sans-serif Bold';letter-spacing:0px;word-spacing:0px;fill:#000000;fill-opacity:1;stroke:none;stroke-width:1.08407533"
   x="35.005932"
   y="11.974209"
   id="text248"
   transform="scale(0.88590194,1.1287931)"><tspan
     sodipodi:role="line"
     id="tspan246"
     x="35.005932"
     y="11.974209"
     style="stroke-width:1.08407533">FRUTOS LERMA</tspan></text>

<text
   xml:space="preserve"
   style="font-style:normal;font-variant:normal;font-weight:normal;font-stretch:normal;font-size:10.12506866px;line-height:1.25;font-family:sans-serif;-inkscape-font-specification:sans-serif;letter-spacing:0px;word-spacing:0px;fill:#999999;fill-opacity:1;stroke:none;stroke-width:1.02903163"
   x="29.841446"
   y="24.416302"
   id="text248-2"
   transform="scale(1.0558471,0.94710683)"><tspan
     sodipodi:role="line"
     id="tspan246-6"
     x="29.841446"
     y="24.416302"
     style="font-style:normal;font-variant:normal;font-weight:normal;font-stretch:normal;font-size:10.12506866px;font-family:sans-serif;-inkscape-font-specification:sans-serif;fill:#999999;stroke-width:1.02903163">D A S H B O A R D</tspan></text>

</svg>